<?xml version="1.0" encoding="us-ascii" standalone="no"?><svg xmlns="http://www.w3.org/2000/svg" xmlns:xlink="http://www.w3.org/1999/xlink" contentStyleType="text/css" height="1066.8px" preserveAspectRatio="none" style="width:1143px;height:1066px;background:#FFFFFF;" version="1.1" viewBox="0 0 1143 1066" width="1143.6px" zoomAndPan="magnify"><defs/><g><!--class mainmenu--><g id="elem_mainmenu"><rect codeLine="2" fill="#F1F1F1" height="207.5625" id="mainmenu" rx="1.5" ry="1.5" style="stroke:#181818;stroke-width:0.3;" width="108.6" x="83.1" y="143.7"/><ellipse cx="115.35" cy="153.3" fill="#ADD1B2" rx="6.6" ry="6.6" style="stroke:#181818;stroke-width:0.6;"/><path d="M117.0094,150.825 Q117.1031,150.6938 117.2156,150.6281 Q117.3281,150.5625 117.4594,150.5625 Q117.6844,150.5625 117.825,150.7219 Q117.9656,150.8719 117.9656,151.2375 L117.9656,152.1094 Q117.9656,152.475 117.825,152.6344 Q117.6844,152.7938 117.4594,152.7938 Q117.2531,152.7938 117.1313,152.6719 Q117.0094,152.5594 116.9438,152.25 Q116.9156,152.0344 116.8031,151.9219 Q116.6062,151.6969 116.2406,151.5656 Q115.875,151.4344 115.5,151.4344 Q115.0406,151.4344 114.6563,151.6313 Q114.2813,151.8281 113.9813,152.2781 Q113.6906,152.7281 113.6906,153.3469 L113.6906,154.0031 Q113.6906,154.7438 114.225,155.2406 Q114.7594,155.7281 115.7156,155.7281 Q116.2781,155.7281 116.6719,155.5781 Q116.9063,155.4844 117.1594,155.2219 Q117.3188,155.0625 117.4031,155.0156 Q117.4969,154.9688 117.6187,154.9688 Q117.8156,154.9688 117.9656,155.1281 Q118.125,155.2781 118.125,155.4844 Q118.125,155.6906 117.9187,155.9344 Q117.6187,156.2813 117.1406,156.4781 Q116.4937,156.75 115.7156,156.75 Q114.8062,156.75 114.0844,156.375 Q113.4937,156.075 113.0813,155.4375 Q112.6688,154.7906 112.6688,154.0219 L112.6688,153.3281 Q112.6688,152.5313 113.0344,151.8469 Q113.4094,151.1531 114.0656,150.7875 Q114.7219,150.4125 115.4625,150.4125 Q115.9031,150.4125 116.2875,150.5156 Q116.6812,150.6094 117.0094,150.825 Z " fill="#000000"/><text fill="#000000" font-family="sans-serif" font-size="8.4" lengthAdjust="spacing" textLength="39" x="127.65" y="156.7781">mainmenu</text><line style="stroke:#181818;stroke-width:0.3;" x1="83.7" x2="191.1" y1="162.9" y2="162.9"/><rect fill="none" height="3.6" style="stroke:#C82930;stroke-width:0.6;" width="3.6" x="87.9" y="169.9863"/><text fill="#000000" font-family="sans-serif" font-size="8.4" lengthAdjust="spacing" textLength="55.8" x="95.1" y="174.3645">Cover: PImage</text><rect fill="none" height="3.6" style="stroke:#C82930;stroke-width:0.6;" width="3.6" x="87.9" y="181.159"/><text fill="#000000" font-family="sans-serif" font-size="8.4" lengthAdjust="spacing" textLength="42" x="95.1" y="185.5371">cq: PImage</text><rect fill="none" height="3.6" style="stroke:#C82930;stroke-width:0.6;" width="3.6" x="87.9" y="192.3316"/><text fill="#000000" font-family="sans-serif" font-size="8.4" lengthAdjust="spacing" textLength="42" x="95.1" y="196.7098">cn: PImage</text><rect fill="none" height="3.6" style="stroke:#C82930;stroke-width:0.6;" width="3.6" x="87.9" y="203.5043"/><text fill="#000000" font-family="sans-serif" font-size="8.4" lengthAdjust="spacing" textLength="49.2" x="95.1" y="207.8824">chtp: PImage</text><rect fill="none" height="3.6" style="stroke:#C82930;stroke-width:0.6;" width="3.6" x="87.9" y="214.677"/><text fill="#000000" font-family="sans-serif" font-size="8.4" lengthAdjust="spacing" textLength="83.4" x="95.1" y="219.0551">protectmarah: PImage</text><rect fill="none" height="3.6" style="stroke:#C82930;stroke-width:0.6;" width="3.6" x="87.9" y="225.8496"/><text fill="#000000" font-family="sans-serif" font-size="8.4" lengthAdjust="spacing" textLength="48" x="95.1" y="230.2277">minim: Minim</text><rect fill="none" height="3.6" style="stroke:#C82930;stroke-width:0.6;" width="3.6" x="87.9" y="237.0223"/><text fill="#000000" font-family="sans-serif" font-size="8.4" lengthAdjust="spacing" textLength="36.6" x="95.1" y="241.4004">bg: Movie</text><rect fill="none" height="3.6" style="stroke:#C82930;stroke-width:0.6;" width="3.6" x="87.9" y="248.1949"/><text fill="#000000" font-family="sans-serif" font-size="8.4" lengthAdjust="spacing" textLength="89.4" x="95.1" y="252.573">mainaudio: AudioPlayer</text><rect fill="none" height="3.6" style="stroke:#C82930;stroke-width:0.6;" width="3.6" x="87.9" y="259.3676"/><text fill="#000000" font-family="sans-serif" font-size="8.4" lengthAdjust="spacing" textLength="71.4" x="95.1" y="263.7457">press: AudioPlayer</text><rect fill="none" height="3.6" style="stroke:#C82930;stroke-width:0.6;" width="3.6" x="87.9" y="270.5402"/><text fill="#000000" font-family="sans-serif" font-size="8.4" lengthAdjust="spacing" textLength="81" x="95.1" y="274.9184">Start_Game: boolean</text><rect fill="none" height="3.6" style="stroke:#C82930;stroke-width:0.6;" width="3.6" x="87.9" y="281.7129"/><text fill="#000000" font-family="sans-serif" font-size="8.4" lengthAdjust="spacing" textLength="84.6" x="95.1" y="286.091">soundPlayed: boolean</text><rect fill="none" height="3.6" style="stroke:#C82930;stroke-width:0.6;" width="3.6" x="87.9" y="292.8855"/><text fill="#000000" font-family="sans-serif" font-size="8.4" lengthAdjust="spacing" textLength="61.2" x="95.1" y="297.2637">clicked: boolean</text><line style="stroke:#181818;stroke-width:0.3;" x1="83.7" x2="191.1" y1="301.7719" y2="301.7719"/><ellipse cx="89.7" cy="310.6582" fill="#84BE84" rx="1.8" ry="1.8" style="stroke:#038048;stroke-width:0.6;"/><text fill="#000000" font-family="sans-serif" font-size="8.4" lengthAdjust="spacing" textLength="93" x="95.1" y="313.2363">main(args: String[]): void</text><ellipse cx="89.7" cy="321.8309" fill="#84BE84" rx="1.8" ry="1.8" style="stroke:#038048;stroke-width:0.6;"/><text fill="#000000" font-family="sans-serif" font-size="8.4" lengthAdjust="spacing" textLength="55.8" x="95.1" y="324.409">settings(): void</text><ellipse cx="89.7" cy="333.0035" fill="#84BE84" rx="1.8" ry="1.8" style="stroke:#038048;stroke-width:0.6;"/><text fill="#000000" font-family="sans-serif" font-size="8.4" lengthAdjust="spacing" textLength="47.4" x="95.1" y="335.5816">setup(): void</text><ellipse cx="89.7" cy="344.1762" fill="#84BE84" rx="1.8" ry="1.8" style="stroke:#038048;stroke-width:0.6;"/><text fill="#000000" font-family="sans-serif" font-size="8.4" lengthAdjust="spacing" textLength="44.4" x="95.1" y="346.7543">draw(): void</text></g><!--class Game--><g id="elem_Game"><rect codeLine="21" fill="#F1F1F1" height="486.8789" id="Game" rx="1.5" ry="1.5" style="stroke:#181818;stroke-width:0.3;" width="148.8" x="461.4" y="4.2"/><ellipse cx="521.85" cy="13.8" fill="#ADD1B2" rx="6.6" ry="6.6" style="stroke:#181818;stroke-width:0.6;"/><path d="M523.5094,11.325 Q523.6031,11.1938 523.7156,11.1281 Q523.8281,11.0625 523.9594,11.0625 Q524.1844,11.0625 524.325,11.2219 Q524.4656,11.3719 524.4656,11.7375 L524.4656,12.6094 Q524.4656,12.975 524.325,13.1344 Q524.1844,13.2938 523.9594,13.2938 Q523.7531,13.2938 523.6313,13.1719 Q523.5094,13.0594 523.4438,12.75 Q523.4156,12.5344 523.3031,12.4219 Q523.1062,12.1969 522.7406,12.0656 Q522.375,11.9344 522,11.9344 Q521.5406,11.9344 521.1563,12.1313 Q520.7813,12.3281 520.4812,12.7781 Q520.1906,13.2281 520.1906,13.8469 L520.1906,14.5031 Q520.1906,15.2437 520.725,15.7406 Q521.2594,16.2281 522.2156,16.2281 Q522.7781,16.2281 523.1719,16.0781 Q523.4063,15.9844 523.6594,15.7219 Q523.8188,15.5625 523.9031,15.5156 Q523.9969,15.4688 524.1188,15.4688 Q524.3156,15.4688 524.4656,15.6281 Q524.625,15.7781 524.625,15.9844 Q524.625,16.1906 524.4187,16.4344 Q524.1188,16.7813 523.6406,16.9781 Q522.9938,17.25 522.2156,17.25 Q521.3063,17.25 520.5844,16.875 Q519.9938,16.575 519.5813,15.9375 Q519.1687,15.2906 519.1687,14.5219 L519.1687,13.8281 Q519.1687,13.0313 519.5344,12.3469 Q519.9094,11.6531 520.5656,11.2875 Q521.2219,10.9125 521.9625,10.9125 Q522.4031,10.9125 522.7875,11.0156 Q523.1813,11.1094 523.5094,11.325 Z " fill="#000000"/><text fill="#000000" font-family="sans-serif" font-size="8.4" lengthAdjust="spacing" textLength="22.8" x="534.15" y="17.2781">Game</text><line style="stroke:#181818;stroke-width:0.3;" x1="462" x2="609.6" y1="23.4" y2="23.4"/><rect fill="none" height="3.6" style="stroke:#C82930;stroke-width:0.6;" width="3.6" x="466.2" y="30.4863"/><text fill="#000000" font-family="sans-serif" font-size="8.4" lengthAdjust="spacing" textLength="47.4" x="473.4" y="34.8645">video: Movie</text><rect fill="none" height="3.6" style="stroke:#C82930;stroke-width:0.6;" width="3.6" x="466.2" y="41.659"/><text fill="#000000" font-family="sans-serif" font-size="8.4" lengthAdjust="spacing" textLength="80.4" x="473.4" y="46.0371">Levelup: AudioPlayer</text><rect fill="none" height="3.6" style="stroke:#C82930;stroke-width:0.6;" width="3.6" x="466.2" y="52.8316"/><text fill="#000000" font-family="sans-serif" font-size="8.4" lengthAdjust="spacing" textLength="49.8" x="473.4" y="57.2098">enemeyy: Gif</text><rect fill="none" height="3.6" style="stroke:#C82930;stroke-width:0.6;" width="3.6" x="466.2" y="64.0043"/><text fill="#000000" font-family="sans-serif" font-size="8.4" lengthAdjust="spacing" textLength="57" x="473.4" y="68.3824">eleminated: Gif</text><rect fill="none" height="3.6" style="stroke:#C82930;stroke-width:0.6;" width="3.6" x="466.2" y="75.177"/><text fill="#000000" font-family="sans-serif" font-size="8.4" lengthAdjust="spacing" textLength="42" x="473.4" y="79.5551">arroww: Gif</text><rect fill="none" height="3.6" style="stroke:#C82930;stroke-width:0.6;" width="3.6" x="466.2" y="86.3496"/><text fill="#000000" font-family="sans-serif" font-size="8.4" lengthAdjust="spacing" textLength="55.8" x="473.4" y="90.7277">Mohanedg: Gif</text><rect fill="none" height="3.6" style="stroke:#C82930;stroke-width:0.6;" width="3.6" x="466.2" y="97.5223"/><text fill="#000000" font-family="sans-serif" font-size="8.4" lengthAdjust="spacing" textLength="68.4" x="473.4" y="101.9004">Mohaned: PImage</text><rect fill="none" height="3.6" style="stroke:#C82930;stroke-width:0.6;" width="3.6" x="466.2" y="108.6949"/><text fill="#000000" font-family="sans-serif" font-size="8.4" lengthAdjust="spacing" textLength="57" x="473.4" y="113.073">Marah: PImage</text><rect fill="none" height="3.6" style="stroke:#C82930;stroke-width:0.6;" width="3.6" x="466.2" y="119.8676"/><text fill="#000000" font-family="sans-serif" font-size="8.4" lengthAdjust="spacing" textLength="63" x="473.4" y="124.2457">Enemys: PImage</text><rect fill="none" height="3.6" style="stroke:#C82930;stroke-width:0.6;" width="3.6" x="466.2" y="131.0402"/><text fill="#000000" font-family="sans-serif" font-size="8.4" lengthAdjust="spacing" textLength="58.8" x="473.4" y="135.4184">Arrows: PImage</text><rect fill="none" height="3.6" style="stroke:#C82930;stroke-width:0.6;" width="3.6" x="466.2" y="142.2129"/><text fill="#000000" font-family="sans-serif" font-size="8.4" lengthAdjust="spacing" textLength="50.4" x="473.4" y="146.591">live1: PImage</text><rect fill="none" height="3.6" style="stroke:#C82930;stroke-width:0.6;" width="3.6" x="466.2" y="153.3855"/><text fill="#000000" font-family="sans-serif" font-size="8.4" lengthAdjust="spacing" textLength="50.4" x="473.4" y="157.7637">live2: PImage</text><rect fill="none" height="3.6" style="stroke:#C82930;stroke-width:0.6;" width="3.6" x="466.2" y="164.5582"/><text fill="#000000" font-family="sans-serif" font-size="8.4" lengthAdjust="spacing" textLength="50.4" x="473.4" y="168.9363">live3: PImage</text><rect fill="none" height="3.6" style="stroke:#C82930;stroke-width:0.6;" width="3.6" x="466.2" y="175.7309"/><text fill="#000000" font-family="sans-serif" font-size="8.4" lengthAdjust="spacing" textLength="50.4" x="473.4" y="180.109">live4: PImage</text><rect fill="none" height="3.6" style="stroke:#C82930;stroke-width:0.6;" width="3.6" x="466.2" y="186.9035"/><text fill="#000000" font-family="sans-serif" font-size="8.4" lengthAdjust="spacing" textLength="70.8" x="473.4" y="191.2816">dashboardf: PFont</text><rect fill="none" height="3.6" style="stroke:#C82930;stroke-width:0.6;" width="3.6" x="466.2" y="198.0762"/><text fill="#000000" font-family="sans-serif" font-size="8.4" lengthAdjust="spacing" textLength="72.6" x="473.4" y="202.4543">game_overf: PFont</text><rect fill="none" height="3.6" style="stroke:#C82930;stroke-width:0.6;" width="3.6" x="466.2" y="209.2488"/><text fill="#000000" font-family="sans-serif" font-size="8.4" lengthAdjust="spacing" textLength="51" x="473.4" y="213.627">shootf: PFont</text><rect fill="none" height="3.6" style="stroke:#C82930;stroke-width:0.6;" width="3.6" x="466.2" y="220.4215"/><text fill="#000000" font-family="sans-serif" font-size="8.4" lengthAdjust="spacing" textLength="55.2" x="473.4" y="224.7996">game: PApplet</text><rect fill="none" height="3.6" style="stroke:#C82930;stroke-width:0.6;" width="3.6" x="466.2" y="231.5941"/><text fill="#000000" font-family="sans-serif" font-size="8.4" lengthAdjust="spacing" textLength="52.2" x="473.4" y="235.9723">player: Player</text><rect fill="none" height="3.6" style="stroke:#C82930;stroke-width:0.6;" width="3.6" x="466.2" y="242.7668"/><text fill="#000000" font-family="sans-serif" font-size="8.4" lengthAdjust="spacing" textLength="94.2" x="473.4" y="247.1449">greenCircle: GreenCircle</text><rect fill="none" height="3.6" style="stroke:#C82930;stroke-width:0.6;" width="3.6" x="466.2" y="253.9395"/><text fill="#000000" font-family="sans-serif" font-size="8.4" lengthAdjust="spacing" textLength="105.6" x="473.4" y="258.3176">enemies: ArrayList&lt;Enemy&gt;</text><rect fill="none" height="3.6" style="stroke:#C82930;stroke-width:0.6;" width="3.6" x="466.2" y="265.1121"/><text fill="#000000" font-family="sans-serif" font-size="8.4" lengthAdjust="spacing" textLength="133.2" x="473.4" y="269.4902">eleminateed: ArrayList&lt;Eliminated&gt;</text><rect fill="none" height="3.6" style="stroke:#C82930;stroke-width:0.6;" width="3.6" x="466.2" y="276.2848"/><text fill="#000000" font-family="sans-serif" font-size="8.4" lengthAdjust="spacing" textLength="71.4" x="473.4" y="280.6629">playerArrow: Arrow</text><rect fill="none" height="3.6" style="stroke:#C82930;stroke-width:0.6;" width="3.6" x="466.2" y="287.4574"/><text fill="#000000" font-family="sans-serif" font-size="8.4" lengthAdjust="spacing" textLength="34.8" x="473.4" y="291.8355">score: int</text><rect fill="none" height="3.6" style="stroke:#C82930;stroke-width:0.6;" width="3.6" x="466.2" y="298.6301"/><text fill="#000000" font-family="sans-serif" font-size="8.4" lengthAdjust="spacing" textLength="30" x="473.4" y="303.0082">load: int</text><rect fill="none" height="3.6" style="stroke:#C82930;stroke-width:0.6;" width="3.6" x="466.2" y="309.8027"/><text fill="#000000" font-family="sans-serif" font-size="8.4" lengthAdjust="spacing" textLength="31.2" x="473.4" y="314.1809">level: int</text><rect fill="none" height="3.6" style="stroke:#C82930;stroke-width:0.6;" width="3.6" x="466.2" y="320.9754"/><text fill="#000000" font-family="sans-serif" font-size="8.4" lengthAdjust="spacing" textLength="57.6" x="473.4" y="325.3535">BonusLives: int</text><rect fill="none" height="3.6" style="stroke:#C82930;stroke-width:0.6;" width="3.6" x="466.2" y="332.148"/><text fill="#000000" font-family="sans-serif" font-size="8.4" lengthAdjust="spacing" textLength="37.8" x="473.4" y="336.5262">lives: float</text><rect fill="none" height="3.6" style="stroke:#C82930;stroke-width:0.6;" width="3.6" x="466.2" y="343.3207"/><text fill="#000000" font-family="sans-serif" font-size="8.4" lengthAdjust="spacing" textLength="59.4" x="473.4" y="347.6988">reload: boolean</text><rect fill="none" height="3.6" style="stroke:#C82930;stroke-width:0.6;" width="3.6" x="466.2" y="354.4934"/><text fill="#000000" font-family="sans-serif" font-size="8.4" lengthAdjust="spacing" textLength="50.4" x="473.4" y="358.8715">minspeed: int</text><rect fill="none" height="3.6" style="stroke:#C82930;stroke-width:0.6;" width="3.6" x="466.2" y="365.666"/><text fill="#000000" font-family="sans-serif" font-size="8.4" lengthAdjust="spacing" textLength="52.2" x="473.4" y="370.0441">maxspeed: int</text><rect fill="none" height="3.6" style="stroke:#C82930;stroke-width:0.6;" width="3.6" x="466.2" y="376.8387"/><text fill="#000000" font-family="sans-serif" font-size="8.4" lengthAdjust="spacing" textLength="55.8" x="473.4" y="381.2168">Levelfactor: int</text><rect fill="none" height="3.6" style="stroke:#C82930;stroke-width:0.6;" width="3.6" x="466.2" y="388.0113"/><text fill="#000000" font-family="sans-serif" font-size="8.4" lengthAdjust="spacing" textLength="65.4" x="473.4" y="392.3895">spawnInterval: int</text><rect fill="none" height="3.6" style="stroke:#C82930;stroke-width:0.6;" width="3.6" x="466.2" y="399.184"/><text fill="#000000" font-family="sans-serif" font-size="8.4" lengthAdjust="spacing" textLength="70.8" x="473.4" y="403.5621">lastSpawnTime: int</text><rect fill="none" height="3.6" style="stroke:#C82930;stroke-width:0.6;" width="3.6" x="466.2" y="410.3566"/><text fill="#000000" font-family="sans-serif" font-size="8.4" lengthAdjust="spacing" textLength="75" x="473.4" y="414.7348">gameOver: boolean</text><line style="stroke:#181818;stroke-width:0.3;" x1="462" x2="609.6" y1="419.243" y2="419.243"/><ellipse cx="468" cy="428.1293" fill="#84BE84" rx="1.8" ry="1.8" style="stroke:#038048;stroke-width:0.6;"/><text fill="#000000" font-family="sans-serif" font-size="8.4" lengthAdjust="spacing" textLength="93" x="473.4" y="430.7074">main(args: String[]): void</text><ellipse cx="468" cy="439.302" fill="#84BE84" rx="1.8" ry="1.8" style="stroke:#038048;stroke-width:0.6;"/><text fill="#000000" font-family="sans-serif" font-size="8.4" lengthAdjust="spacing" textLength="55.8" x="473.4" y="441.8801">settings(): void</text><ellipse cx="468" cy="450.4746" fill="#84BE84" rx="1.8" ry="1.8" style="stroke:#038048;stroke-width:0.6;"/><text fill="#000000" font-family="sans-serif" font-size="8.4" lengthAdjust="spacing" textLength="47.4" x="473.4" y="453.0527">setup(): void</text><ellipse cx="468" cy="461.6473" fill="#84BE84" rx="1.8" ry="1.8" style="stroke:#038048;stroke-width:0.6;"/><text fill="#000000" font-family="sans-serif" font-size="8.4" lengthAdjust="spacing" textLength="44.4" x="473.4" y="464.2254">draw(): void</text><ellipse cx="468" cy="472.8199" fill="#84BE84" rx="1.8" ry="1.8" style="stroke:#038048;stroke-width:0.6;"/><text fill="#000000" font-family="sans-serif" font-size="8.4" lengthAdjust="spacing" textLength="76.8" x="473.4" y="475.398">mouseMoved(): void</text><ellipse cx="468" cy="483.9926" fill="#84BE84" rx="1.8" ry="1.8" style="stroke:#038048;stroke-width:0.6;"/><text fill="#000000" font-family="sans-serif" font-size="8.4" lengthAdjust="spacing" textLength="82.8" x="473.4" y="486.5707">mousePressed(): void</text></g><!--class HUD--><g id="elem_HUD"><rect codeLine="65" fill="#F1F1F1" height="95.8359" id="HUD" rx="1.5" ry="1.5" style="stroke:#181818;stroke-width:0.3;" width="81.6" x="976.8" y="890.7"/><ellipse cx="1006.65" cy="900.3" fill="#ADD1B2" rx="6.6" ry="6.6" style="stroke:#181818;stroke-width:0.6;"/><path d="M1008.3094,897.825 Q1008.4031,897.6938 1008.5156,897.6281 Q1008.6281,897.5625 1008.7594,897.5625 Q1008.9844,897.5625 1009.125,897.7219 Q1009.2656,897.8719 1009.2656,898.2375 L1009.2656,899.1094 Q1009.2656,899.475 1009.125,899.6344 Q1008.9844,899.7937 1008.7594,899.7937 Q1008.5531,899.7937 1008.4313,899.6719 Q1008.3094,899.5594 1008.2438,899.25 Q1008.2156,899.0344 1008.1031,898.9219 Q1007.9063,898.6969 1007.5406,898.5656 Q1007.175,898.4344 1006.8,898.4344 Q1006.3406,898.4344 1005.9563,898.6313 Q1005.5813,898.8281 1005.2813,899.2781 Q1004.9906,899.7281 1004.9906,900.3469 L1004.9906,901.0031 Q1004.9906,901.7438 1005.525,902.2406 Q1006.0594,902.7281 1007.0156,902.7281 Q1007.5781,902.7281 1007.9719,902.5781 Q1008.2063,902.4844 1008.4594,902.2219 Q1008.6188,902.0625 1008.7031,902.0156 Q1008.7969,901.9688 1008.9187,901.9688 Q1009.1156,901.9688 1009.2656,902.1281 Q1009.425,902.2781 1009.425,902.4844 Q1009.425,902.6906 1009.2188,902.9344 Q1008.9187,903.2813 1008.4406,903.4781 Q1007.7937,903.75 1007.0156,903.75 Q1006.1062,903.75 1005.3844,903.375 Q1004.7937,903.075 1004.3812,902.4375 Q1003.9688,901.7906 1003.9688,901.0219 L1003.9688,900.3281 Q1003.9688,899.5313 1004.3344,898.8469 Q1004.7094,898.1531 1005.3656,897.7875 Q1006.0219,897.4125 1006.7625,897.4125 Q1007.2031,897.4125 1007.5875,897.5156 Q1007.9812,897.6094 1008.3094,897.825 Z " fill="#000000"/><text fill="#000000" font-family="sans-serif" font-size="8.4" lengthAdjust="spacing" textLength="16.8" x="1018.95" y="903.7781">HUD</text><line style="stroke:#181818;stroke-width:0.3;" x1="977.4" x2="1057.8" y1="909.9" y2="909.9"/><line style="stroke:#181818;stroke-width:0.3;" x1="977.4" x2="1057.8" y1="914.7" y2="914.7"/><ellipse cx="983.4" cy="923.5863" fill="#84BE84" rx="1.8" ry="1.8" style="stroke:#038048;stroke-width:0.6;"/><text fill="#000000" font-family="sans-serif" font-size="8.4" lengthAdjust="spacing" textLength="65.4" x="988.8" y="926.1645">drawscore(): void</text><ellipse cx="983.4" cy="934.759" fill="#84BE84" rx="1.8" ry="1.8" style="stroke:#038048;stroke-width:0.6;"/><text fill="#000000" font-family="sans-serif" font-size="8.4" lengthAdjust="spacing" textLength="64.2" x="988.8" y="937.3371">drawLives(): void</text><ellipse cx="983.4" cy="945.9316" fill="#84BE84" rx="1.8" ry="1.8" style="stroke:#038048;stroke-width:0.6;"/><text fill="#000000" font-family="sans-serif" font-size="8.4" lengthAdjust="spacing" textLength="66" x="988.8" y="948.5098">gameOver(): void</text><ellipse cx="983.4" cy="957.1043" fill="#84BE84" rx="1.8" ry="1.8" style="stroke:#038048;stroke-width:0.6;"/><text fill="#000000" font-family="sans-serif" font-size="8.4" lengthAdjust="spacing" textLength="52.8" x="988.8" y="959.6824">shutter(): void</text><ellipse cx="983.4" cy="968.277" fill="#84BE84" rx="1.8" ry="1.8" style="stroke:#038048;stroke-width:0.6;"/><text fill="#000000" font-family="sans-serif" font-size="8.4" lengthAdjust="spacing" textLength="60.6" x="988.8" y="970.8551">randomX(): float</text><ellipse cx="983.4" cy="979.4496" fill="#84BE84" rx="1.8" ry="1.8" style="stroke:#038048;stroke-width:0.6;"/><text fill="#000000" font-family="sans-serif" font-size="8.4" lengthAdjust="spacing" textLength="61.2" x="988.8" y="982.0277">randomY(): float</text></g><!--class Arrow--><g id="elem_Arrow"><rect codeLine="74" fill="#F1F1F1" height="84.6633" id="Arrow" rx="1.5" ry="1.5" style="stroke:#181818;stroke-width:0.3;" width="249.6" x="657.6" y="747.9"/><ellipse cx="769.05" cy="757.5" fill="#ADD1B2" rx="6.6" ry="6.6" style="stroke:#181818;stroke-width:0.6;"/><path d="M770.7094,755.025 Q770.8031,754.8938 770.9156,754.8281 Q771.0281,754.7625 771.1594,754.7625 Q771.3844,754.7625 771.525,754.9219 Q771.6656,755.0719 771.6656,755.4375 L771.6656,756.3094 Q771.6656,756.675 771.525,756.8344 Q771.3844,756.9938 771.1594,756.9938 Q770.9531,756.9938 770.8313,756.8719 Q770.7094,756.7594 770.6438,756.45 Q770.6156,756.2344 770.5031,756.1219 Q770.3063,755.8969 769.9406,755.7656 Q769.575,755.6344 769.2,755.6344 Q768.7406,755.6344 768.3562,755.8313 Q767.9812,756.0281 767.6813,756.4781 Q767.3906,756.9281 767.3906,757.5469 L767.3906,758.2031 Q767.3906,758.9438 767.925,759.4406 Q768.4594,759.9281 769.4156,759.9281 Q769.9781,759.9281 770.3719,759.7781 Q770.6062,759.6844 770.8594,759.4219 Q771.0188,759.2625 771.1031,759.2156 Q771.1969,759.1687 771.3188,759.1687 Q771.5156,759.1687 771.6656,759.3281 Q771.825,759.4781 771.825,759.6844 Q771.825,759.8906 771.6188,760.1344 Q771.3188,760.4812 770.8406,760.6781 Q770.1938,760.95 769.4156,760.95 Q768.5063,760.95 767.7844,760.575 Q767.1938,760.275 766.7813,759.6375 Q766.3688,758.9906 766.3688,758.2219 L766.3688,757.5281 Q766.3688,756.7312 766.7344,756.0469 Q767.1094,755.3531 767.7656,754.9875 Q768.4219,754.6125 769.1625,754.6125 Q769.6031,754.6125 769.9875,754.7156 Q770.3813,754.8094 770.7094,755.025 Z " fill="#000000"/><text fill="#000000" font-family="sans-serif" font-size="8.4" lengthAdjust="spacing" textLength="21.6" x="781.35" y="760.9781">Arrow</text><line style="stroke:#181818;stroke-width:0.3;" x1="658.2" x2="906.6" y1="767.1" y2="767.1"/><rect fill="none" height="3.6" style="stroke:#C82930;stroke-width:0.6;" width="3.6" x="662.4" y="774.1863"/><text fill="#000000" font-family="sans-serif" font-size="8.4" lengthAdjust="spacing" textLength="149.4" x="669.6" y="778.5645">activeArrows: ArrayList&lt;ArrowInstance&gt;</text><line style="stroke:#181818;stroke-width:0.3;" x1="658.2" x2="906.6" y1="783.0727" y2="783.0727"/><ellipse cx="664.2" cy="791.959" fill="#84BE84" rx="1.8" ry="1.8" style="stroke:#038048;stroke-width:0.6;"/><text fill="#000000" font-family="sans-serif" font-size="8.4" lengthAdjust="spacing" textLength="27.6" x="669.6" y="794.5371">Arrow()</text><ellipse cx="664.2" cy="803.1316" fill="#84BE84" rx="1.8" ry="1.8" style="stroke:#038048;stroke-width:0.6;"/><text fill="#000000" font-family="sans-serif" font-size="8.4" lengthAdjust="spacing" textLength="52.8" x="669.6" y="805.7098">update(): void</text><ellipse cx="664.2" cy="814.3043" fill="#84BE84" rx="1.8" ry="1.8" style="stroke:#038048;stroke-width:0.6;"/><text fill="#000000" font-family="sans-serif" font-size="8.4" lengthAdjust="spacing" textLength="100.2" x="669.6" y="816.8824">render(app: PApplet): void</text><ellipse cx="664.2" cy="825.477" fill="#84BE84" rx="1.8" ry="1.8" style="stroke:#038048;stroke-width:0.6;"/><text fill="#000000" font-family="sans-serif" font-size="8.4" lengthAdjust="spacing" textLength="234" x="669.6" y="828.0551">shoot(startX: float, startY: float, angle: float, speed: float): void</text></g><!--class ArrowInstance--><g id="elem_ArrowInstance"><rect codeLine="82" fill="#F1F1F1" height="118.1812" id="ArrowInstance" rx="1.5" ry="1.5" style="stroke:#181818;stroke-width:0.3;" width="261.6" x="651.6" y="879.6"/><ellipse cx="753.15" cy="889.2" fill="#ADD1B2" rx="6.6" ry="6.6" style="stroke:#181818;stroke-width:0.6;"/><path d="M754.8094,886.725 Q754.9031,886.5938 755.0156,886.5281 Q755.1281,886.4625 755.2594,886.4625 Q755.4844,886.4625 755.625,886.6219 Q755.7656,886.7719 755.7656,887.1375 L755.7656,888.0094 Q755.7656,888.375 755.625,888.5344 Q755.4844,888.6938 755.2594,888.6938 Q755.0531,888.6938 754.9313,888.5719 Q754.8094,888.4594 754.7438,888.15 Q754.7156,887.9344 754.6031,887.8219 Q754.4063,887.5969 754.0406,887.4656 Q753.675,887.3344 753.3,887.3344 Q752.8406,887.3344 752.4563,887.5313 Q752.0813,887.7281 751.7813,888.1781 Q751.4906,888.6281 751.4906,889.2469 L751.4906,889.9031 Q751.4906,890.6438 752.025,891.1406 Q752.5594,891.6281 753.5156,891.6281 Q754.0781,891.6281 754.4719,891.4781 Q754.7063,891.3844 754.9594,891.1219 Q755.1188,890.9625 755.2031,890.9156 Q755.2969,890.8688 755.4187,890.8688 Q755.6156,890.8688 755.7656,891.0281 Q755.925,891.1781 755.925,891.3844 Q755.925,891.5906 755.7188,891.8344 Q755.4187,892.1813 754.9406,892.3781 Q754.2937,892.65 753.5156,892.65 Q752.6062,892.65 751.8844,892.275 Q751.2937,891.975 750.8813,891.3375 Q750.4688,890.6906 750.4688,889.9219 L750.4688,889.2281 Q750.4688,888.4313 750.8344,887.7469 Q751.2094,887.0531 751.8656,886.6875 Q752.5219,886.3125 753.2625,886.3125 Q753.7031,886.3125 754.0875,886.4156 Q754.4812,886.5094 754.8094,886.725 Z " fill="#000000"/><text fill="#000000" font-family="sans-serif" font-size="8.4" lengthAdjust="spacing" textLength="53.4" x="765.45" y="892.6781">ArrowInstance</text><line style="stroke:#181818;stroke-width:0.3;" x1="652.2" x2="912.6" y1="898.8" y2="898.8"/><rect fill="none" height="3.6" style="stroke:#C82930;stroke-width:0.6;" width="3.6" x="656.4" y="905.8863"/><text fill="#000000" font-family="sans-serif" font-size="8.4" lengthAdjust="spacing" textLength="24.6" x="663.6" y="910.2645">x: float</text><rect fill="none" height="3.6" style="stroke:#C82930;stroke-width:0.6;" width="3.6" x="656.4" y="917.059"/><text fill="#000000" font-family="sans-serif" font-size="8.4" lengthAdjust="spacing" textLength="25.2" x="663.6" y="921.4371">y: float</text><rect fill="none" height="3.6" style="stroke:#C82930;stroke-width:0.6;" width="3.6" x="656.4" y="928.2316"/><text fill="#000000" font-family="sans-serif" font-size="8.4" lengthAdjust="spacing" textLength="29.4" x="663.6" y="932.6098">dx: float</text><rect fill="none" height="3.6" style="stroke:#C82930;stroke-width:0.6;" width="3.6" x="656.4" y="939.4043"/><text fill="#000000" font-family="sans-serif" font-size="8.4" lengthAdjust="spacing" textLength="30" x="663.6" y="943.7824">dy: float</text><line style="stroke:#181818;stroke-width:0.3;" x1="652.2" x2="912.6" y1="948.2906" y2="948.2906"/><ellipse cx="658.2" cy="957.177" fill="#84BE84" rx="1.8" ry="1.8" style="stroke:#038048;stroke-width:0.6;"/><text fill="#000000" font-family="sans-serif" font-size="8.4" lengthAdjust="spacing" textLength="246" x="663.6" y="959.7551">ArrowInstance(startX: float, startY: float, angle: float, speed: float)</text><ellipse cx="658.2" cy="968.3496" fill="#84BE84" rx="1.8" ry="1.8" style="stroke:#038048;stroke-width:0.6;"/><text fill="#000000" font-family="sans-serif" font-size="8.4" lengthAdjust="spacing" textLength="52.8" x="663.6" y="970.9277">update(): void</text><ellipse cx="658.2" cy="979.5223" fill="#84BE84" rx="1.8" ry="1.8" style="stroke:#038048;stroke-width:0.6;"/><text fill="#000000" font-family="sans-serif" font-size="8.4" lengthAdjust="spacing" textLength="100.2" x="663.6" y="982.1004">render(app: PApplet): void</text><ellipse cx="658.2" cy="990.6949" fill="#84BE84" rx="1.8" ry="1.8" style="stroke:#038048;stroke-width:0.6;"/><text fill="#000000" font-family="sans-serif" font-size="8.4" lengthAdjust="spacing" textLength="85.8" x="663.6" y="993.273">isOffScreen(): boolean</text></g><!--class GreenCircle--><g id="elem_GreenCircle"><rect codeLine="93" fill="#F1F1F1" height="107.0086" id="GreenCircle" rx="1.5" ry="1.5" style="stroke:#181818;stroke-width:0.3;" width="211.2" x="928.2" y="736.8"/><ellipse cx="1008.45" cy="746.4" fill="#ADD1B2" rx="6.6" ry="6.6" style="stroke:#181818;stroke-width:0.6;"/><path d="M1010.1094,743.925 Q1010.2031,743.7937 1010.3156,743.7281 Q1010.4281,743.6625 1010.5594,743.6625 Q1010.7844,743.6625 1010.925,743.8219 Q1011.0656,743.9719 1011.0656,744.3375 L1011.0656,745.2094 Q1011.0656,745.575 1010.925,745.7344 Q1010.7844,745.8938 1010.5594,745.8938 Q1010.3531,745.8938 1010.2312,745.7719 Q1010.1094,745.6594 1010.0437,745.35 Q1010.0156,745.1344 1009.9031,745.0219 Q1009.7063,744.7969 1009.3406,744.6656 Q1008.975,744.5344 1008.6,744.5344 Q1008.1406,744.5344 1007.7562,744.7312 Q1007.3812,744.9281 1007.0813,745.3781 Q1006.7906,745.8281 1006.7906,746.4469 L1006.7906,747.1031 Q1006.7906,747.8438 1007.325,748.3406 Q1007.8594,748.8281 1008.8156,748.8281 Q1009.3781,748.8281 1009.7719,748.6781 Q1010.0062,748.5844 1010.2594,748.3219 Q1010.4187,748.1625 1010.5031,748.1156 Q1010.5969,748.0688 1010.7188,748.0688 Q1010.9156,748.0688 1011.0656,748.2281 Q1011.225,748.3781 1011.225,748.5844 Q1011.225,748.7906 1011.0188,749.0344 Q1010.7188,749.3813 1010.2406,749.5781 Q1009.5938,749.85 1008.8156,749.85 Q1007.9063,749.85 1007.1844,749.475 Q1006.5938,749.175 1006.1813,748.5375 Q1005.7688,747.8906 1005.7688,747.1219 L1005.7688,746.4281 Q1005.7688,745.6313 1006.1344,744.9469 Q1006.5094,744.2531 1007.1656,743.8875 Q1007.8219,743.5125 1008.5625,743.5125 Q1009.0031,743.5125 1009.3875,743.6156 Q1009.7813,743.7094 1010.1094,743.925 Z " fill="#000000"/><text fill="#000000" font-family="sans-serif" font-size="8.4" lengthAdjust="spacing" textLength="45.6" x="1020.75" y="749.8781">GreenCircle</text><line style="stroke:#181818;stroke-width:0.3;" x1="928.8" x2="1138.8" y1="756" y2="756"/><rect fill="none" height="3.6" style="stroke:#C82930;stroke-width:0.6;" width="3.6" x="933" y="763.0863"/><text fill="#000000" font-family="sans-serif" font-size="8.4" lengthAdjust="spacing" textLength="24.6" x="940.2" y="767.4645">x: float</text><rect fill="none" height="3.6" style="stroke:#C82930;stroke-width:0.6;" width="3.6" x="933" y="774.259"/><text fill="#000000" font-family="sans-serif" font-size="8.4" lengthAdjust="spacing" textLength="25.2" x="940.2" y="778.6371">y: float</text><rect fill="none" height="3.6" style="stroke:#C82930;stroke-width:0.6;" width="3.6" x="933" y="785.4316"/><text fill="#000000" font-family="sans-serif" font-size="8.4" lengthAdjust="spacing" textLength="28.2" x="940.2" y="789.8098">size: int</text><rect fill="none" height="3.6" style="stroke:#C82930;stroke-width:0.6;" width="3.6" x="933" y="796.6043"/><text fill="#000000" font-family="sans-serif" font-size="8.4" lengthAdjust="spacing" textLength="68.4" x="940.2" y="800.9824">hitMarah: boolean</text><line style="stroke:#181818;stroke-width:0.3;" x1="928.8" x2="1138.8" y1="805.4906" y2="805.4906"/><ellipse cx="934.8" cy="814.377" fill="#84BE84" rx="1.8" ry="1.8" style="stroke:#038048;stroke-width:0.6;"/><text fill="#000000" font-family="sans-serif" font-size="8.4" lengthAdjust="spacing" textLength="106.2" x="940.2" y="816.9551">GreenCircle(x: float, y: float)</text><ellipse cx="934.8" cy="825.5496" fill="#84BE84" rx="1.8" ry="1.8" style="stroke:#038048;stroke-width:0.6;"/><text fill="#000000" font-family="sans-serif" font-size="8.4" lengthAdjust="spacing" textLength="162" x="940.2" y="828.1277">render(app: PApplet, marah: PImage): void</text><ellipse cx="934.8" cy="836.7223" fill="#84BE84" rx="1.8" ry="1.8" style="stroke:#038048;stroke-width:0.6;"/><text fill="#000000" font-family="sans-serif" font-size="8.4" lengthAdjust="spacing" textLength="195.6" x="940.2" y="839.3004">isCollidedWithArrow(arrow: ArrowInstance): boolean</text></g><!--class Player--><g id="elem_Player"><rect codeLine="103" fill="#F1F1F1" height="174.0445" id="Player" rx="1.5" ry="1.5" style="stroke:#181818;stroke-width:0.3;" width="156.6" x="704.1" y="526.8"/><ellipse cx="767.85" cy="536.4" fill="#ADD1B2" rx="6.6" ry="6.6" style="stroke:#181818;stroke-width:0.6;"/><path d="M769.5094,533.925 Q769.6031,533.7937 769.7156,533.7281 Q769.8281,533.6625 769.9594,533.6625 Q770.1844,533.6625 770.325,533.8219 Q770.4656,533.9719 770.4656,534.3375 L770.4656,535.2094 Q770.4656,535.575 770.325,535.7344 Q770.1844,535.8938 769.9594,535.8938 Q769.7531,535.8938 769.6313,535.7719 Q769.5094,535.6594 769.4438,535.35 Q769.4156,535.1344 769.3031,535.0219 Q769.1062,534.7969 768.7406,534.6656 Q768.375,534.5344 768,534.5344 Q767.5406,534.5344 767.1563,534.7312 Q766.7813,534.9281 766.4812,535.3781 Q766.1906,535.8281 766.1906,536.4469 L766.1906,537.1031 Q766.1906,537.8438 766.725,538.3406 Q767.2594,538.8281 768.2156,538.8281 Q768.7781,538.8281 769.1719,538.6781 Q769.4063,538.5844 769.6594,538.3219 Q769.8188,538.1625 769.9031,538.1156 Q769.9969,538.0688 770.1188,538.0688 Q770.3156,538.0688 770.4656,538.2281 Q770.625,538.3781 770.625,538.5844 Q770.625,538.7906 770.4187,539.0344 Q770.1188,539.3813 769.6406,539.5781 Q768.9938,539.85 768.2156,539.85 Q767.3063,539.85 766.5844,539.475 Q765.9938,539.175 765.5813,538.5375 Q765.1687,537.8906 765.1687,537.1219 L765.1687,536.4281 Q765.1687,535.6313 765.5344,534.9469 Q765.9094,534.2531 766.5656,533.8875 Q767.2219,533.5125 767.9625,533.5125 Q768.4031,533.5125 768.7875,533.6156 Q769.1813,533.7094 769.5094,533.925 Z " fill="#000000"/><text fill="#000000" font-family="sans-serif" font-size="8.4" lengthAdjust="spacing" textLength="24" x="780.15" y="539.8781">Player</text><line style="stroke:#181818;stroke-width:0.3;" x1="704.7" x2="860.1" y1="546" y2="546"/><rect fill="none" height="3.6" style="stroke:#C82930;stroke-width:0.6;" width="3.6" x="708.9" y="553.0863"/><text fill="#000000" font-family="sans-serif" font-size="8.4" lengthAdjust="spacing" textLength="24.6" x="716.1" y="557.4645">x: float</text><rect fill="none" height="3.6" style="stroke:#C82930;stroke-width:0.6;" width="3.6" x="708.9" y="564.259"/><text fill="#000000" font-family="sans-serif" font-size="8.4" lengthAdjust="spacing" textLength="25.2" x="716.1" y="568.6371">y: float</text><rect fill="none" height="3.6" style="stroke:#C82930;stroke-width:0.6;" width="3.6" x="708.9" y="575.4316"/><text fill="#000000" font-family="sans-serif" font-size="8.4" lengthAdjust="spacing" textLength="35.4" x="716.1" y="579.8098">size: float</text><rect fill="none" height="3.6" style="stroke:#C82930;stroke-width:0.6;" width="3.6" x="708.9" y="586.6043"/><text fill="#000000" font-family="sans-serif" font-size="8.4" lengthAdjust="spacing" textLength="42" x="716.1" y="590.9824">angle: float</text><rect fill="none" height="3.6" style="stroke:#C82930;stroke-width:0.6;" width="3.6" x="708.9" y="597.777"/><text fill="#000000" font-family="sans-serif" font-size="8.4" lengthAdjust="spacing" textLength="64.2" x="716.1" y="602.1551">orbitRadius: float</text><rect fill="none" height="3.6" style="stroke:#C82930;stroke-width:0.6;" width="3.6" x="708.9" y="608.9496"/><text fill="#000000" font-family="sans-serif" font-size="8.4" lengthAdjust="spacing" textLength="47.4" x="716.1" y="613.3277">arrow: Arrow</text><rect fill="none" height="3.6" style="stroke:#C82930;stroke-width:0.6;" width="3.6" x="708.9" y="620.1223"/><text fill="#000000" font-family="sans-serif" font-size="8.4" lengthAdjust="spacing" textLength="62.4" x="716.1" y="624.5004">moving: boolean</text><rect fill="none" height="3.6" style="stroke:#C82930;stroke-width:0.6;" width="3.6" x="708.9" y="631.2949"/><text fill="#000000" font-family="sans-serif" font-size="8.4" lengthAdjust="spacing" textLength="75.6" x="716.1" y="635.673">angle_rotation: float</text><line style="stroke:#181818;stroke-width:0.3;" x1="704.7" x2="860.1" y1="640.1813" y2="640.1813"/><ellipse cx="710.7" cy="649.0676" fill="#84BE84" rx="1.8" ry="1.8" style="stroke:#038048;stroke-width:0.6;"/><text fill="#000000" font-family="sans-serif" font-size="8.4" lengthAdjust="spacing" textLength="94.2" x="716.1" y="651.6457">Player(orbitRadius: float)</text><ellipse cx="710.7" cy="660.2402" fill="#84BE84" rx="1.8" ry="1.8" style="stroke:#038048;stroke-width:0.6;"/><text fill="#000000" font-family="sans-serif" font-size="8.4" lengthAdjust="spacing" textLength="127.8" x="716.1" y="662.8184">update(gameOver: boolean): void</text><ellipse cx="710.7" cy="671.4129" fill="#84BE84" rx="1.8" ry="1.8" style="stroke:#038048;stroke-width:0.6;"/><text fill="#000000" font-family="sans-serif" font-size="8.4" lengthAdjust="spacing" textLength="141" x="716.1" y="673.991">aim(targetX: float, targetY: float): void</text><ellipse cx="710.7" cy="682.5855" fill="#84BE84" rx="1.8" ry="1.8" style="stroke:#038048;stroke-width:0.6;"/><text fill="#000000" font-family="sans-serif" font-size="8.4" lengthAdjust="spacing" textLength="51.6" x="716.1" y="685.1637">render(): void</text><ellipse cx="710.7" cy="693.7582" fill="#84BE84" rx="1.8" ry="1.8" style="stroke:#038048;stroke-width:0.6;"/><text fill="#000000" font-family="sans-serif" font-size="8.4" lengthAdjust="spacing" textLength="69" x="716.1" y="696.3363">shootArrow(): void</text></g><!--class Enemy--><g id="elem_Enemy"><rect codeLine="119" fill="#F1F1F1" height="162.8719" id="Enemy" rx="1.5" ry="1.5" style="stroke:#181818;stroke-width:0.3;" width="211.2" x="924.6" y="532.5"/><ellipse cx="1014.75" cy="542.1" fill="#ADD1B2" rx="6.6" ry="6.6" style="stroke:#181818;stroke-width:0.6;"/><path d="M1016.4094,539.625 Q1016.5031,539.4938 1016.6156,539.4281 Q1016.7281,539.3625 1016.8594,539.3625 Q1017.0844,539.3625 1017.225,539.5219 Q1017.3656,539.6719 1017.3656,540.0375 L1017.3656,540.9094 Q1017.3656,541.275 1017.225,541.4344 Q1017.0844,541.5938 1016.8594,541.5938 Q1016.6531,541.5938 1016.5313,541.4719 Q1016.4094,541.3594 1016.3438,541.05 Q1016.3156,540.8344 1016.2031,540.7219 Q1016.0062,540.4969 1015.6406,540.3656 Q1015.275,540.2344 1014.9,540.2344 Q1014.4406,540.2344 1014.0563,540.4313 Q1013.6813,540.6281 1013.3812,541.0781 Q1013.0906,541.5281 1013.0906,542.1469 L1013.0906,542.8031 Q1013.0906,543.5437 1013.625,544.0406 Q1014.1594,544.5281 1015.1156,544.5281 Q1015.6781,544.5281 1016.0719,544.3781 Q1016.3063,544.2844 1016.5594,544.0219 Q1016.7188,543.8625 1016.8031,543.8156 Q1016.8969,543.7688 1017.0188,543.7688 Q1017.2156,543.7688 1017.3656,543.9281 Q1017.525,544.0781 1017.525,544.2844 Q1017.525,544.4906 1017.3187,544.7344 Q1017.0188,545.0813 1016.5406,545.2781 Q1015.8938,545.55 1015.1156,545.55 Q1014.2063,545.55 1013.4844,545.175 Q1012.8938,544.875 1012.4812,544.2375 Q1012.0687,543.5906 1012.0687,542.8219 L1012.0687,542.1281 Q1012.0687,541.3313 1012.4344,540.6469 Q1012.8094,539.9531 1013.4656,539.5875 Q1014.1219,539.2125 1014.8625,539.2125 Q1015.3031,539.2125 1015.6875,539.3156 Q1016.0813,539.4094 1016.4094,539.625 Z " fill="#000000"/><text fill="#000000" font-family="sans-serif" font-size="8.4" lengthAdjust="spacing" textLength="25.8" x="1027.05" y="545.5781">Enemy</text><line style="stroke:#181818;stroke-width:0.3;" x1="925.2" x2="1135.2" y1="551.7" y2="551.7"/><rect fill="none" height="3.6" style="stroke:#C82930;stroke-width:0.6;" width="3.6" x="929.4" y="558.7863"/><text fill="#000000" font-family="sans-serif" font-size="8.4" lengthAdjust="spacing" textLength="24.6" x="936.6" y="563.1645">x: float</text><rect fill="none" height="3.6" style="stroke:#C82930;stroke-width:0.6;" width="3.6" x="929.4" y="569.959"/><text fill="#000000" font-family="sans-serif" font-size="8.4" lengthAdjust="spacing" textLength="25.2" x="936.6" y="574.3371">y: float</text><rect fill="none" height="3.6" style="stroke:#C82930;stroke-width:0.6;" width="3.6" x="929.4" y="581.1316"/><text fill="#000000" font-family="sans-serif" font-size="8.4" lengthAdjust="spacing" textLength="44.4" x="936.6" y="585.5098">speed: float</text><rect fill="none" height="3.6" style="stroke:#C82930;stroke-width:0.6;" width="3.6" x="929.4" y="592.3043"/><text fill="#000000" font-family="sans-serif" font-size="8.4" lengthAdjust="spacing" textLength="35.4" x="936.6" y="596.6824">size: float</text><line style="stroke:#181818;stroke-width:0.3;" x1="925.2" x2="1135.2" y1="601.1906" y2="601.1906"/><ellipse cx="931.2" cy="610.077" fill="#84BE84" rx="1.8" ry="1.8" style="stroke:#038048;stroke-width:0.6;"/><text fill="#000000" font-family="sans-serif" font-size="8.4" lengthAdjust="spacing" textLength="135.6" x="936.6" y="612.6551">Enemy(x: float, y: float, speed: float)</text><ellipse cx="931.2" cy="621.2496" fill="#84BE84" rx="1.8" ry="1.8" style="stroke:#038048;stroke-width:0.6;"/><text fill="#000000" font-family="sans-serif" font-size="8.4" lengthAdjust="spacing" textLength="52.8" x="936.6" y="623.8277">update(): void</text><ellipse cx="931.2" cy="632.4223" fill="#84BE84" rx="1.8" ry="1.8" style="stroke:#038048;stroke-width:0.6;"/><text fill="#000000" font-family="sans-serif" font-size="8.4" lengthAdjust="spacing" textLength="100.2" x="936.6" y="635.0004">render(app: PApplet): void</text><ellipse cx="931.2" cy="643.5949" fill="#84BE84" rx="1.8" ry="1.8" style="stroke:#038048;stroke-width:0.6;"/><text fill="#000000" font-family="sans-serif" font-size="8.4" lengthAdjust="spacing" textLength="118.8" x="936.6" y="646.173">isCollidedWithPlayer(): boolean</text><ellipse cx="931.2" cy="654.7676" fill="#84BE84" rx="1.8" ry="1.8" style="stroke:#038048;stroke-width:0.6;"/><text fill="#000000" font-family="sans-serif" font-size="8.4" lengthAdjust="spacing" textLength="140.4" x="936.6" y="657.3457">isCollidedWithGreenCircle(): boolean</text><ellipse cx="931.2" cy="665.9402" fill="#84BE84" rx="1.8" ry="1.8" style="stroke:#038048;stroke-width:0.6;"/><text fill="#000000" font-family="sans-serif" font-size="8.4" lengthAdjust="spacing" textLength="195.6" x="936.6" y="668.5184">isCollidedWithArrow(arrow: ArrowInstance): boolean</text><ellipse cx="931.2" cy="677.1129" fill="#84BE84" rx="1.8" ry="1.8" style="stroke:#038048;stroke-width:0.6;"/><text fill="#000000" font-family="sans-serif" font-size="8.4" lengthAdjust="spacing" textLength="180" x="936.6" y="679.691">spawnEnemy(x: float, y: float, speed: float): void</text><ellipse cx="931.2" cy="688.2855" fill="#84BE84" rx="1.8" ry="1.8" style="stroke:#038048;stroke-width:0.6;"/><text fill="#000000" font-family="sans-serif" font-size="8.4" lengthAdjust="spacing" textLength="75" x="936.6" y="690.8637">enemyAttack(): void</text></g><!--class Eliminated--><g id="elem_Eliminated"><rect codeLine="134" fill="#F1F1F1" height="73.4906" id="Eliminated" rx="1.5" ry="1.5" style="stroke:#181818;stroke-width:0.3;" width="115.2" x="283.2" y="577.2"/><ellipse cx="318.75" cy="586.8" fill="#ADD1B2" rx="6.6" ry="6.6" style="stroke:#181818;stroke-width:0.6;"/><path d="M320.4094,584.325 Q320.5031,584.1938 320.6156,584.1281 Q320.7281,584.0625 320.8594,584.0625 Q321.0844,584.0625 321.225,584.2219 Q321.3656,584.3719 321.3656,584.7375 L321.3656,585.6094 Q321.3656,585.975 321.225,586.1344 Q321.0844,586.2937 320.8594,586.2937 Q320.6531,586.2937 320.5313,586.1719 Q320.4094,586.0594 320.3438,585.75 Q320.3156,585.5344 320.2031,585.4219 Q320.0062,585.1969 319.6406,585.0656 Q319.275,584.9344 318.9,584.9344 Q318.4406,584.9344 318.0563,585.1313 Q317.6813,585.3281 317.3812,585.7781 Q317.0906,586.2281 317.0906,586.8469 L317.0906,587.5031 Q317.0906,588.2438 317.625,588.7406 Q318.1594,589.2281 319.1156,589.2281 Q319.6781,589.2281 320.0719,589.0781 Q320.3063,588.9844 320.5594,588.7219 Q320.7188,588.5625 320.8031,588.5156 Q320.8969,588.4688 321.0188,588.4688 Q321.2156,588.4688 321.3656,588.6281 Q321.525,588.7781 321.525,588.9844 Q321.525,589.1906 321.3187,589.4344 Q321.0188,589.7813 320.5406,589.9781 Q319.8938,590.25 319.1156,590.25 Q318.2063,590.25 317.4844,589.875 Q316.8938,589.575 316.4813,588.9375 Q316.0687,588.2906 316.0687,587.5219 L316.0687,586.8281 Q316.0687,586.0313 316.4344,585.3469 Q316.8094,584.6531 317.4656,584.2875 Q318.1219,583.9125 318.8625,583.9125 Q319.3031,583.9125 319.6875,584.0156 Q320.0813,584.1094 320.4094,584.325 Z " fill="#000000"/><text fill="#000000" font-family="sans-serif" font-size="8.4" lengthAdjust="spacing" textLength="39" x="331.05" y="590.2781">Eliminated</text><line style="stroke:#181818;stroke-width:0.3;" x1="283.8" x2="397.8" y1="596.4" y2="596.4"/><rect fill="none" height="3.6" style="stroke:#C82930;stroke-width:0.6;" width="3.6" x="288" y="603.4863"/><text fill="#000000" font-family="sans-serif" font-size="8.4" lengthAdjust="spacing" textLength="24.6" x="295.2" y="607.8645">x: float</text><rect fill="none" height="3.6" style="stroke:#C82930;stroke-width:0.6;" width="3.6" x="288" y="614.659"/><text fill="#000000" font-family="sans-serif" font-size="8.4" lengthAdjust="spacing" textLength="25.2" x="295.2" y="619.0371">y: float</text><line style="stroke:#181818;stroke-width:0.3;" x1="283.8" x2="397.8" y1="623.5453" y2="623.5453"/><ellipse cx="289.8" cy="632.4316" fill="#84BE84" rx="1.8" ry="1.8" style="stroke:#038048;stroke-width:0.6;"/><text fill="#000000" font-family="sans-serif" font-size="8.4" lengthAdjust="spacing" textLength="99.6" x="295.2" y="635.0098">Eliminated(x: float, y: float)</text><ellipse cx="289.8" cy="643.6043" fill="#84BE84" rx="1.8" ry="1.8" style="stroke:#038048;stroke-width:0.6;"/><text fill="#000000" font-family="sans-serif" font-size="8.4" lengthAdjust="spacing" textLength="51.6" x="295.2" y="646.1824">render(): void</text></g><!--class PImage--><g id="elem_PImage"><rect fill="#F1F1F1" height="28.8" id="PImage" rx="1.5" ry="1.5" style="stroke:#181818;stroke-width:0.3;" width="47.4" x="152.1" y="599.4"/><ellipse cx="161.1" cy="609" fill="#ADD1B2" rx="6.6" ry="6.6" style="stroke:#181818;stroke-width:0.6;"/><path d="M162.7594,606.525 Q162.8531,606.3938 162.9656,606.3281 Q163.0781,606.2625 163.2094,606.2625 Q163.4344,606.2625 163.575,606.4219 Q163.7156,606.5719 163.7156,606.9375 L163.7156,607.8094 Q163.7156,608.175 163.575,608.3344 Q163.4344,608.4938 163.2094,608.4938 Q163.0031,608.4938 162.8813,608.3719 Q162.7594,608.2594 162.6938,607.95 Q162.6656,607.7344 162.5531,607.6219 Q162.3563,607.3969 161.9906,607.2656 Q161.625,607.1344 161.25,607.1344 Q160.7906,607.1344 160.4063,607.3313 Q160.0313,607.5281 159.7313,607.9781 Q159.4406,608.4281 159.4406,609.0469 L159.4406,609.7031 Q159.4406,610.4438 159.975,610.9406 Q160.5094,611.4281 161.4656,611.4281 Q162.0281,611.4281 162.4219,611.2781 Q162.6563,611.1844 162.9094,610.9219 Q163.0688,610.7625 163.1531,610.7156 Q163.2469,610.6687 163.3688,610.6687 Q163.5656,610.6687 163.7156,610.8281 Q163.875,610.9781 163.875,611.1844 Q163.875,611.3906 163.6688,611.6344 Q163.3688,611.9812 162.8906,612.1781 Q162.2438,612.45 161.4656,612.45 Q160.5563,612.45 159.8344,612.075 Q159.2438,611.775 158.8312,611.1375 Q158.4188,610.4906 158.4188,609.7219 L158.4188,609.0281 Q158.4188,608.2312 158.7844,607.5469 Q159.1594,606.8531 159.8156,606.4875 Q160.4719,606.1125 161.2125,606.1125 Q161.6531,606.1125 162.0375,606.2156 Q162.4313,606.3094 162.7594,606.525 Z " fill="#000000"/><text fill="#000000" font-family="sans-serif" font-size="8.4" lengthAdjust="spacing" textLength="28.2" x="169.5" y="612.4781">PImage</text><line style="stroke:#181818;stroke-width:0.3;" x1="152.7" x2="198.9" y1="618.6" y2="618.6"/><line style="stroke:#181818;stroke-width:0.3;" x1="152.7" x2="198.9" y1="623.4" y2="623.4"/></g><!--class Minim--><g id="elem_Minim"><rect fill="#F1F1F1" height="28.8" id="Minim" rx="1.5" ry="1.5" style="stroke:#181818;stroke-width:0.3;" width="40.8" x="4.2" y="599.4"/><ellipse cx="13.2" cy="609" fill="#ADD1B2" rx="6.6" ry="6.6" style="stroke:#181818;stroke-width:0.6;"/><path d="M14.8594,606.525 Q14.9531,606.3938 15.0656,606.3281 Q15.1781,606.2625 15.3094,606.2625 Q15.5344,606.2625 15.675,606.4219 Q15.8156,606.5719 15.8156,606.9375 L15.8156,607.8094 Q15.8156,608.175 15.675,608.3344 Q15.5344,608.4938 15.3094,608.4938 Q15.1031,608.4938 14.9813,608.3719 Q14.8594,608.2594 14.7938,607.95 Q14.7656,607.7344 14.6531,607.6219 Q14.4562,607.3969 14.0906,607.2656 Q13.725,607.1344 13.35,607.1344 Q12.8906,607.1344 12.5063,607.3313 Q12.1313,607.5281 11.8312,607.9781 Q11.5406,608.4281 11.5406,609.0469 L11.5406,609.7031 Q11.5406,610.4438 12.075,610.9406 Q12.6094,611.4281 13.5656,611.4281 Q14.1281,611.4281 14.5219,611.2781 Q14.7563,611.1844 15.0094,610.9219 Q15.1688,610.7625 15.2531,610.7156 Q15.3469,610.6687 15.4688,610.6687 Q15.6656,610.6687 15.8156,610.8281 Q15.975,610.9781 15.975,611.1844 Q15.975,611.3906 15.7687,611.6344 Q15.4688,611.9812 14.9906,612.1781 Q14.3438,612.45 13.5656,612.45 Q12.6563,612.45 11.9344,612.075 Q11.3438,611.775 10.9313,611.1375 Q10.5187,610.4906 10.5187,609.7219 L10.5187,609.0281 Q10.5187,608.2312 10.8844,607.5469 Q11.2594,606.8531 11.9156,606.4875 Q12.5719,606.1125 13.3125,606.1125 Q13.7531,606.1125 14.1375,606.2156 Q14.5313,606.3094 14.8594,606.525 Z " fill="#000000"/><text fill="#000000" font-family="sans-serif" font-size="8.4" lengthAdjust="spacing" textLength="21.6" x="21.6" y="612.4781">Minim</text><line style="stroke:#181818;stroke-width:0.3;" x1="4.8" x2="44.4" y1="618.6" y2="618.6"/><line style="stroke:#181818;stroke-width:0.3;" x1="4.8" x2="44.4" y1="623.4" y2="623.4"/></g><!--class Movie--><g id="elem_Movie"><rect fill="#F1F1F1" height="28.8" id="Movie" rx="1.5" ry="1.5" style="stroke:#181818;stroke-width:0.3;" width="41.4" x="220.5" y="599.4"/><ellipse cx="229.5" cy="609" fill="#ADD1B2" rx="6.6" ry="6.6" style="stroke:#181818;stroke-width:0.6;"/><path d="M231.1594,606.525 Q231.2531,606.3938 231.3656,606.3281 Q231.4781,606.2625 231.6094,606.2625 Q231.8344,606.2625 231.975,606.4219 Q232.1156,606.5719 232.1156,606.9375 L232.1156,607.8094 Q232.1156,608.175 231.975,608.3344 Q231.8344,608.4938 231.6094,608.4938 Q231.4031,608.4938 231.2813,608.3719 Q231.1594,608.2594 231.0938,607.95 Q231.0656,607.7344 230.9531,607.6219 Q230.7563,607.3969 230.3906,607.2656 Q230.025,607.1344 229.65,607.1344 Q229.1906,607.1344 228.8063,607.3313 Q228.4313,607.5281 228.1313,607.9781 Q227.8406,608.4281 227.8406,609.0469 L227.8406,609.7031 Q227.8406,610.4438 228.375,610.9406 Q228.9094,611.4281 229.8656,611.4281 Q230.4281,611.4281 230.8219,611.2781 Q231.0562,611.1844 231.3094,610.9219 Q231.4688,610.7625 231.5531,610.7156 Q231.6469,610.6687 231.7687,610.6687 Q231.9656,610.6687 232.1156,610.8281 Q232.275,610.9781 232.275,611.1844 Q232.275,611.3906 232.0688,611.6344 Q231.7687,611.9812 231.2906,612.1781 Q230.6437,612.45 229.8656,612.45 Q228.9562,612.45 228.2344,612.075 Q227.6437,611.775 227.2313,611.1375 Q226.8188,610.4906 226.8188,609.7219 L226.8188,609.0281 Q226.8188,608.2312 227.1844,607.5469 Q227.5594,606.8531 228.2156,606.4875 Q228.8719,606.1125 229.6125,606.1125 Q230.0531,606.1125 230.4375,606.2156 Q230.8312,606.3094 231.1594,606.525 Z " fill="#000000"/><text fill="#000000" font-family="sans-serif" font-size="8.4" lengthAdjust="spacing" textLength="22.2" x="237.9" y="612.4781">Movie</text><line style="stroke:#181818;stroke-width:0.3;" x1="221.1" x2="261.3" y1="618.6" y2="618.6"/><line style="stroke:#181818;stroke-width:0.3;" x1="221.1" x2="261.3" y1="623.4" y2="623.4"/></g><!--class AudioPlayer--><g id="elem_AudioPlayer"><rect fill="#F1F1F1" height="28.8" id="AudioPlayer" rx="1.5" ry="1.5" style="stroke:#181818;stroke-width:0.3;" width="64.8" x="66" y="599.4"/><ellipse cx="75" cy="609" fill="#ADD1B2" rx="6.6" ry="6.6" style="stroke:#181818;stroke-width:0.6;"/><path d="M76.6594,606.525 Q76.7531,606.3938 76.8656,606.3281 Q76.9781,606.2625 77.1094,606.2625 Q77.3344,606.2625 77.475,606.4219 Q77.6156,606.5719 77.6156,606.9375 L77.6156,607.8094 Q77.6156,608.175 77.475,608.3344 Q77.3344,608.4938 77.1094,608.4938 Q76.9031,608.4938 76.7813,608.3719 Q76.6594,608.2594 76.5938,607.95 Q76.5656,607.7344 76.4531,607.6219 Q76.2563,607.3969 75.8906,607.2656 Q75.525,607.1344 75.15,607.1344 Q74.6906,607.1344 74.3062,607.3313 Q73.9312,607.5281 73.6313,607.9781 Q73.3406,608.4281 73.3406,609.0469 L73.3406,609.7031 Q73.3406,610.4438 73.875,610.9406 Q74.4094,611.4281 75.3656,611.4281 Q75.9281,611.4281 76.3219,611.2781 Q76.5562,611.1844 76.8094,610.9219 Q76.9688,610.7625 77.0531,610.7156 Q77.1469,610.6687 77.2688,610.6687 Q77.4656,610.6687 77.6156,610.8281 Q77.775,610.9781 77.775,611.1844 Q77.775,611.3906 77.5688,611.6344 Q77.2688,611.9812 76.7906,612.1781 Q76.1438,612.45 75.3656,612.45 Q74.4563,612.45 73.7344,612.075 Q73.1438,611.775 72.7313,611.1375 Q72.3188,610.4906 72.3188,609.7219 L72.3188,609.0281 Q72.3188,608.2312 72.6844,607.5469 Q73.0594,606.8531 73.7156,606.4875 Q74.3719,606.1125 75.1125,606.1125 Q75.5531,606.1125 75.9375,606.2156 Q76.3313,606.3094 76.6594,606.525 Z " fill="#000000"/><text fill="#000000" font-family="sans-serif" font-size="8.4" lengthAdjust="spacing" textLength="45.6" x="83.4" y="612.4781">AudioPlayer</text><line style="stroke:#181818;stroke-width:0.3;" x1="66.6" x2="130.2" y1="618.6" y2="618.6"/><line style="stroke:#181818;stroke-width:0.3;" x1="66.6" x2="130.2" y1="623.4" y2="623.4"/></g><!--class PApplet--><g id="elem_PApplet"><rect fill="#F1F1F1" height="28.8" id="PApplet" rx="1.5" ry="1.5" style="stroke:#181818;stroke-width:0.3;" width="48.6" x="839.1" y="1033.8"/><ellipse cx="848.1" cy="1043.4" fill="#ADD1B2" rx="6.6" ry="6.6" style="stroke:#181818;stroke-width:0.6;"/><path d="M849.7594,1040.925 Q849.8531,1040.7938 849.9656,1040.7281 Q850.0781,1040.6625 850.2094,1040.6625 Q850.4344,1040.6625 850.575,1040.8219 Q850.7156,1040.9719 850.7156,1041.3375 L850.7156,1042.2094 Q850.7156,1042.575 850.575,1042.7344 Q850.4344,1042.8938 850.2094,1042.8938 Q850.0031,1042.8938 849.8813,1042.7719 Q849.7594,1042.6594 849.6938,1042.35 Q849.6656,1042.1344 849.5531,1042.0219 Q849.3562,1041.7969 848.9906,1041.6656 Q848.625,1041.5344 848.25,1041.5344 Q847.7906,1041.5344 847.4063,1041.7313 Q847.0313,1041.9281 846.7312,1042.3781 Q846.4406,1042.8281 846.4406,1043.4469 L846.4406,1044.1031 Q846.4406,1044.8438 846.975,1045.3406 Q847.5094,1045.8281 848.4656,1045.8281 Q849.0281,1045.8281 849.4219,1045.6781 Q849.6563,1045.5844 849.9094,1045.3219 Q850.0688,1045.1625 850.1531,1045.1156 Q850.2469,1045.0688 850.3688,1045.0688 Q850.5656,1045.0688 850.7156,1045.2281 Q850.875,1045.3781 850.875,1045.5844 Q850.875,1045.7906 850.6687,1046.0344 Q850.3688,1046.3813 849.8906,1046.5781 Q849.2438,1046.85 848.4656,1046.85 Q847.5563,1046.85 846.8344,1046.475 Q846.2438,1046.175 845.8313,1045.5375 Q845.4187,1044.8906 845.4187,1044.1219 L845.4187,1043.4281 Q845.4187,1042.6313 845.7844,1041.9469 Q846.1594,1041.2531 846.8156,1040.8875 Q847.4719,1040.5125 848.2125,1040.5125 Q848.6531,1040.5125 849.0375,1040.6156 Q849.4313,1040.7094 849.7594,1040.925 Z " fill="#000000"/><text fill="#000000" font-family="sans-serif" font-size="8.4" lengthAdjust="spacing" textLength="29.4" x="856.5" y="1046.8781">PApplet</text><line style="stroke:#181818;stroke-width:0.3;" x1="839.7" x2="887.1" y1="1053" y2="1053"/><line style="stroke:#181818;stroke-width:0.3;" x1="839.7" x2="887.1" y1="1057.8" y2="1057.8"/></g><!--class PFont--><g id="elem_PFont"><rect fill="#F1F1F1" height="28.8" id="PFont" rx="1.5" ry="1.5" style="stroke:#181818;stroke-width:0.3;" width="42" x="462" y="599.4"/><ellipse cx="471" cy="609" fill="#ADD1B2" rx="6.6" ry="6.6" style="stroke:#181818;stroke-width:0.6;"/><path d="M472.6594,606.525 Q472.7531,606.3938 472.8656,606.3281 Q472.9781,606.2625 473.1094,606.2625 Q473.3344,606.2625 473.475,606.4219 Q473.6156,606.5719 473.6156,606.9375 L473.6156,607.8094 Q473.6156,608.175 473.475,608.3344 Q473.3344,608.4938 473.1094,608.4938 Q472.9031,608.4938 472.7813,608.3719 Q472.6594,608.2594 472.5938,607.95 Q472.5656,607.7344 472.4531,607.6219 Q472.2562,607.3969 471.8906,607.2656 Q471.525,607.1344 471.15,607.1344 Q470.6906,607.1344 470.3063,607.3313 Q469.9313,607.5281 469.6312,607.9781 Q469.3406,608.4281 469.3406,609.0469 L469.3406,609.7031 Q469.3406,610.4438 469.875,610.9406 Q470.4094,611.4281 471.3656,611.4281 Q471.9281,611.4281 472.3219,611.2781 Q472.5563,611.1844 472.8094,610.9219 Q472.9688,610.7625 473.0531,610.7156 Q473.1469,610.6687 473.2687,610.6687 Q473.4656,610.6687 473.6156,610.8281 Q473.775,610.9781 473.775,611.1844 Q473.775,611.3906 473.5687,611.6344 Q473.2687,611.9812 472.7906,612.1781 Q472.1437,612.45 471.3656,612.45 Q470.4562,612.45 469.7344,612.075 Q469.1437,611.775 468.7313,611.1375 Q468.3187,610.4906 468.3187,609.7219 L468.3187,609.0281 Q468.3187,608.2312 468.6844,607.5469 Q469.0594,606.8531 469.7156,606.4875 Q470.3719,606.1125 471.1125,606.1125 Q471.5531,606.1125 471.9375,606.2156 Q472.3312,606.3094 472.6594,606.525 Z " fill="#000000"/><text fill="#000000" font-family="sans-serif" font-size="8.4" lengthAdjust="spacing" textLength="22.8" x="479.4" y="612.4781">PFont</text><line style="stroke:#181818;stroke-width:0.3;" x1="462.6" x2="503.4" y1="618.6" y2="618.6"/><line style="stroke:#181818;stroke-width:0.3;" x1="462.6" x2="503.4" y1="623.4" y2="623.4"/></g><!--class ArrayList--><g id="elem_ArrayList"><rect fill="#F1F1F1" height="28.8" id="ArrayList" rx="1.5" ry="1.5" style="stroke:#181818;stroke-width:0.3;" width="52.8" x="543.6" y="924.3"/><ellipse cx="552.6" cy="933.9" fill="#ADD1B2" rx="6.6" ry="6.6" style="stroke:#181818;stroke-width:0.6;"/><path d="M554.2594,931.425 Q554.3531,931.2937 554.4656,931.2281 Q554.5781,931.1625 554.7094,931.1625 Q554.9344,931.1625 555.075,931.3219 Q555.2156,931.4719 555.2156,931.8375 L555.2156,932.7094 Q555.2156,933.075 555.075,933.2344 Q554.9344,933.3938 554.7094,933.3938 Q554.5031,933.3938 554.3813,933.2719 Q554.2594,933.1594 554.1938,932.85 Q554.1656,932.6344 554.0531,932.5219 Q553.8562,932.2969 553.4906,932.1656 Q553.125,932.0344 552.75,932.0344 Q552.2906,932.0344 551.9063,932.2312 Q551.5313,932.4281 551.2312,932.8781 Q550.9406,933.3281 550.9406,933.9469 L550.9406,934.6031 Q550.9406,935.3438 551.475,935.8406 Q552.0094,936.3281 552.9656,936.3281 Q553.5281,936.3281 553.9219,936.1781 Q554.1563,936.0844 554.4094,935.8219 Q554.5688,935.6625 554.6531,935.6156 Q554.7469,935.5687 554.8688,935.5687 Q555.0656,935.5687 555.2156,935.7281 Q555.375,935.8781 555.375,936.0844 Q555.375,936.2906 555.1687,936.5344 Q554.8688,936.8812 554.3906,937.0781 Q553.7438,937.35 552.9656,937.35 Q552.0563,937.35 551.3344,936.975 Q550.7438,936.675 550.3313,936.0375 Q549.9187,935.3906 549.9187,934.6219 L549.9187,933.9281 Q549.9187,933.1312 550.2844,932.4469 Q550.6594,931.7531 551.3156,931.3875 Q551.9719,931.0125 552.7125,931.0125 Q553.1531,931.0125 553.5375,931.1156 Q553.9313,931.2094 554.2594,931.425 Z " fill="#000000"/><text fill="#000000" font-family="sans-serif" font-size="8.4" lengthAdjust="spacing" textLength="33.6" x="561" y="937.3781">ArrayList</text><line style="stroke:#181818;stroke-width:0.3;" x1="544.2" x2="595.8" y1="943.5" y2="943.5"/><line style="stroke:#181818;stroke-width:0.3;" x1="544.2" x2="595.8" y1="948.3" y2="948.3"/></g><!--class Gif--><g id="elem_Gif"><rect fill="#F1F1F1" height="28.8" id="Gif" rx="1.5" ry="1.5" style="stroke:#181818;stroke-width:0.3;" width="30" x="567.6" y="599.4"/><ellipse cx="576.6" cy="609" fill="#ADD1B2" rx="6.6" ry="6.6" style="stroke:#181818;stroke-width:0.6;"/><path d="M578.2594,606.525 Q578.3531,606.3938 578.4656,606.3281 Q578.5781,606.2625 578.7094,606.2625 Q578.9344,606.2625 579.075,606.4219 Q579.2156,606.5719 579.2156,606.9375 L579.2156,607.8094 Q579.2156,608.175 579.075,608.3344 Q578.9344,608.4938 578.7094,608.4938 Q578.5031,608.4938 578.3813,608.3719 Q578.2594,608.2594 578.1938,607.95 Q578.1656,607.7344 578.0531,607.6219 Q577.8562,607.3969 577.4906,607.2656 Q577.125,607.1344 576.75,607.1344 Q576.2906,607.1344 575.9063,607.3313 Q575.5313,607.5281 575.2312,607.9781 Q574.9406,608.4281 574.9406,609.0469 L574.9406,609.7031 Q574.9406,610.4438 575.475,610.9406 Q576.0094,611.4281 576.9656,611.4281 Q577.5281,611.4281 577.9219,611.2781 Q578.1563,611.1844 578.4094,610.9219 Q578.5688,610.7625 578.6531,610.7156 Q578.7469,610.6687 578.8688,610.6687 Q579.0656,610.6687 579.2156,610.8281 Q579.375,610.9781 579.375,611.1844 Q579.375,611.3906 579.1687,611.6344 Q578.8688,611.9812 578.3906,612.1781 Q577.7438,612.45 576.9656,612.45 Q576.0563,612.45 575.3344,612.075 Q574.7438,611.775 574.3313,611.1375 Q573.9187,610.4906 573.9187,609.7219 L573.9187,609.0281 Q573.9187,608.2312 574.2844,607.5469 Q574.6594,606.8531 575.3156,606.4875 Q575.9719,606.1125 576.7125,606.1125 Q577.1531,606.1125 577.5375,606.2156 Q577.9313,606.3094 578.2594,606.525 Z " fill="#000000"/><text fill="#000000" font-family="sans-serif" font-size="8.4" lengthAdjust="spacing" textLength="10.8" x="585" y="612.4781">Gif</text><line style="stroke:#181818;stroke-width:0.3;" x1="568.2" x2="597" y1="618.6" y2="618.6"/><line style="stroke:#181818;stroke-width:0.3;" x1="568.2" x2="597" y1="623.4" y2="623.4"/></g><!--link mainmenu to PImage--><g id="link_mainmenu_PImage"><path codeLine="141" d="M148.278,351.504 C157.566,439.848 169.7053,555.2778 173.9473,595.5978 " fill="none" id="mainmenu-to-PImage" style="stroke:#181818;stroke-width:0.6;"/><polygon fill="#181818" points="174.324,599.178,176.1458,593.5565,174.0101,596.1945,171.3722,594.0588,174.324,599.178" style="stroke:#181818;stroke-width:0.6;"/></g><!--link mainmenu to Minim--><g id="link_mainmenu_Minim"><path codeLine="142" d="M105.456,351.504 C78.156,439.848 42.4506,555.4184 29.9946,595.7384 " fill="none" id="mainmenu-to-Minim" style="stroke:#181818;stroke-width:0.6;"/><polygon fill="#181818" points="28.932,599.178,32.819,594.727,29.8175,596.3117,28.2328,593.3102,28.932,599.178" style="stroke:#181818;stroke-width:0.6;"/></g><!--link mainmenu to Movie--><g id="link_mainmenu_Movie"><path codeLine="143" d="M166.8,351.504 C191.916,439.848 224.7653,555.3953 236.2313,595.7153 " fill="none" id="mainmenu-to-Movie" style="stroke:#181818;stroke-width:0.6;"/><polygon fill="#181818" points="237.216,599.178,238.0474,593.3275,236.3954,596.2924,233.4305,594.6404,237.216,599.178" style="stroke:#181818;stroke-width:0.6;"/></g><!--link mainmenu to AudioPlayer--><g id="link_mainmenu_AudioPlayer"><path codeLine="144" d="M126.354,351.504 C116.916,439.848 104.5839,555.2783 100.2819,595.5983 " fill="none" id="mainmenu-to-AudioPlayer" style="stroke:#181818;stroke-width:0.6;"/><polygon fill="#181818" points="99.9,599.178,102.8594,594.0631,100.2183,596.1949,98.0865,593.5539,99.9,599.178" style="stroke:#181818;stroke-width:0.6;"/></g><!--link Game to PImage--><g id="link_Game_PImage"><path codeLine="145" d="M461.4,295.74 C388.65,345.636 279.042,430.098 210,526.8 C193.692,549.648 184.6598,577.8688 179.9678,595.8328 " fill="none" id="Game-to-PImage" style="stroke:#181818;stroke-width:0.6;"/><polygon fill="#181818" points="179.058,599.316,182.7447,594.6978,179.8161,596.4134,178.1005,593.4848,179.058,599.316" style="stroke:#181818;stroke-width:0.6;"/></g><!--link Game to PApplet--><g id="link_Game_PApplet"><path codeLine="146" d="M461.352,454.152 C413.61,627.168 384.984,866.55 532.8,997.8 C578.208,1038.12 766.6628,1045.7235 835.2968,1047.1815 " fill="none" id="Game-to-PApplet" style="stroke:#181818;stroke-width:0.6;"/><polygon fill="#181818" points="838.896,1047.258,833.5482,1044.7439,835.8967,1047.1943,833.4462,1049.5428,838.896,1047.258" style="stroke:#181818;stroke-width:0.6;"/></g><!--link Game to PFont--><g id="link_Game_PFont"><path codeLine="147" d="M500.694,490.866 C493.902,537.804 488.4952,575.1971 485.5312,595.6931 " fill="none" id="Game-to-PFont" style="stroke:#181818;stroke-width:0.6;"/><polygon fill="#181818" points="485.016,599.256,488.1642,594.2551,485.4454,596.2869,483.4136,593.5681,485.016,599.256" style="stroke:#181818;stroke-width:0.6;"/></g><!--link Game to ArrayList--><g id="link_Game_ArrayList"><path codeLine="148" d="M546.654,490.992 C549.804,558.9 553.326,632.736 556.8,700.8 C561.132,785.688 566.8249,884.0222 568.9729,920.5982 " fill="none" id="Game-to-ArrayList" style="stroke:#181818;stroke-width:0.6;"/><polygon fill="#181818" points="569.184,924.192,571.2633,918.6606,569.0081,921.1972,566.4715,918.942,569.184,924.192" style="stroke:#181818;stroke-width:0.6;"/></g><!--link Game to Movie--><g id="link_Game_Movie"><path codeLine="149" d="M461.112,311.328 C402.942,363.936 323.706,443.46 272.4,526.8 C257.934,550.296 249.6418,577.9967 245.2198,595.7567 " fill="none" id="Game-to-Movie" style="stroke:#181818;stroke-width:0.6;"/><polygon fill="#181818" points="244.35,599.25,247.9836,594.5898,245.0748,596.3389,243.3258,593.4301,244.35,599.25" style="stroke:#181818;stroke-width:0.6;"/></g><!--link Game to AudioPlayer--><g id="link_Game_AudioPlayer"><path codeLine="150" d="M461.358,305.322 C394.668,355.848 293.562,430.614 202.2,490.8 C176.04,508.032 162.936,503.862 141.6,526.8 C121.554,548.352 109.8257,577.5458 103.7177,595.9178 " fill="none" id="Game-to-AudioPlayer" style="stroke:#181818;stroke-width:0.6;"/><polygon fill="#181818" points="102.582,599.334,106.563,594.9669,103.5285,596.4872,102.0082,593.4526,102.582,599.334" style="stroke:#181818;stroke-width:0.6;"/></g><!--link Game to Gif--><g id="link_Game_Gif"><path codeLine="151" d="M566.916,490.866 C572.934,537.804 577.7262,575.1892 580.3542,595.6852 " fill="none" id="Game-to-Gif" style="stroke:#181818;stroke-width:0.6;"/><polygon fill="#181818" points="580.812,599.256,582.5057,593.5946,580.4305,596.2804,577.7447,594.2051,580.812,599.256" style="stroke:#181818;stroke-width:0.6;"/></g><!--link Game to Player--><g id="link_Game_Player"><path codeLine="152" d="M610.29,358.386 C646.728,412.332 687.937,473.3448 721.951,523.7028 " fill="none" id="Game-to-Player" style="stroke:#181818;stroke-width:0.6;"/><polygon fill="#181818" points="723.966,526.686,722.9323,520.8678,722.2868,524.2,718.9547,523.5545,723.966,526.686" style="stroke:#181818;stroke-width:0.6;"/></g><!--link Game to GreenCircle--><g id="link_Game_GreenCircle"><path codeLine="153" d="M610.284,290.226 C687.384,337.734 805.554,422.19 871.2,526.8 C913.554,594.294 870.246,634.47 914.4,700.8 C923.238,714.078 932.0308,723.777 944.4268,734.403 " fill="none" id="Game-to-GreenCircle" style="stroke:#181818;stroke-width:0.6;"/><polygon fill="#181818" points="947.16,736.746,944.6221,731.4094,944.8823,734.7935,941.4982,735.0537,947.16,736.746" style="stroke:#181818;stroke-width:0.6;"/></g><!--link Game to Enemy--><g id="link_Game_Enemy"><path codeLine="154" d="M610.35,303.156 C693.906,364.86 827.1321,463.2394 921.6381,533.0314 " fill="none" id="Game-to-Enemy" style="stroke:#181818;stroke-width:0.6;"/><polygon fill="#181818" points="924.534,535.17,921.6159,530.0315,922.1207,533.3878,918.7644,533.8927,924.534,535.17" style="stroke:#181818;stroke-width:0.6;"/></g><!--link Game to Eliminated--><g id="link_Game_Eliminated"><path codeLine="155" d="M461.382,387.432 C424.806,455.91 385.33,529.8225 361.792,573.8925 " fill="none" id="Game-to-Eliminated" style="stroke:#181818;stroke-width:0.6;"/><polygon fill="#181818" points="360.096,577.068,364.757,573.4355,361.5094,574.4218,360.5231,571.1741,360.096,577.068" style="stroke:#181818;stroke-width:0.6;"/></g><!--link Game to Arrow--><g id="link_Game_Arrow"><path codeLine="156" d="M610.272,430.404 C622.44,462.33 634.488,495.384 645,526.8 C670.476,602.946 653.088,631.476 693.6,700.8 C703.608,717.93 715.1531,731.5821 729.1871,745.3161 " fill="none" id="Game-to-Arrow" style="stroke:#181818;stroke-width:0.6;"/><polygon fill="#181818" points="731.76,747.834,729.5792,742.3418,729.6159,745.7357,726.222,745.7724,731.76,747.834" style="stroke:#181818;stroke-width:0.6;"/></g><!--link HUD to PApplet--><g id="link_HUD_PApplet"><path codeLine="157" d="M976.704,984.396 C971.502,989.172 966.078,993.756 960.6,997.8 C937.716,1014.69 911.5836,1027.4556 891.1296,1036.3116 " fill="none" id="HUD-to-PApplet" style="stroke:#181818;stroke-width:0.6;"/><polygon fill="#181818" points="887.826,1037.742,893.735,1037.7989,890.579,1036.55,891.8279,1033.394,887.826,1037.742" style="stroke:#181818;stroke-width:0.6;"/></g><!--link Arrow to ArrayList--><g id="link_Arrow_ArrayList"><path codeLine="158" d="M712.242,832.596 C689.262,846.906 663.876,863.412 641.4,879.6 C621.504,893.928 602.6105,909.6769 588.4385,921.9169 " fill="none" id="Arrow-to-ArrayList" style="stroke:#181818;stroke-width:0.6;"/><polygon fill="#181818" points="585.714,924.27,591.3695,922.5567,587.9844,922.3091,588.232,918.924,585.714,924.27" style="stroke:#181818;stroke-width:0.6;"/></g><!--link Arrow to ArrowInstance--><g id="link_Arrow_ArrowInstance"><path codeLine="159" d="M775.422,832.614 C774.768,847.158 774.525,860.1547 774.825,875.8087 " fill="none" id="Arrow-to-ArrowInstance" style="stroke:#181818;stroke-width:0.6;"/><polygon fill="#181818" points="774.894,879.408,777.1901,873.963,774.8365,876.4086,772.391,874.055,774.894,879.408" style="stroke:#181818;stroke-width:0.6;"/></g><!--link ArrowInstance to Arrow--><g id="link_ArrowInstance_Arrow"><path codeLine="162" d="M790.35,879.408 C790.668,863.754 790.6541,850.7539 789.9581,836.2099 " fill="none" id="ArrowInstance-to-Arrow" style="stroke:#181818;stroke-width:0.6;"/><polygon fill="#181818" points="789.786,832.614,787.6469,838.1225,789.9294,835.6106,792.4414,837.8931,789.786,832.614" style="stroke:#181818;stroke-width:0.6;"/></g><!--link ArrowInstance to PApplet--><g id="link_ArrowInstance_PApplet"><path codeLine="160" d="M826.218,997.89 C836.286,1011.342 843.9153,1021.5516 850.9233,1030.9176 " fill="none" id="ArrowInstance-to-PApplet" style="stroke:#181818;stroke-width:0.6;"/><polygon fill="#181818" points="853.08,1033.8,851.7665,1028.0385,851.2827,1031.398,847.9233,1030.9142,853.08,1033.8" style="stroke:#181818;stroke-width:0.6;"/></g><!--link ArrowInstance to Game--><g id="link_ArrowInstance_Game"><path codeLine="161" d="M678.084,879.462 C666.168,868.92 655.434,856.962 647.4,843.6 C574.308,722.016 635.004,666.144 608.4,526.8 C606.15,515.01 604.4452,506.5046 601.8232,494.3846 " fill="none" id="ArrowInstance-to-Game" style="stroke:#181818;stroke-width:0.6;"/><polygon fill="#181818" points="601.062,490.866,599.8581,496.6514,601.6963,493.7982,604.5495,495.6364,601.062,490.866" style="stroke:#181818;stroke-width:0.6;"/></g><!--link GreenCircle to PApplet--><g id="link_GreenCircle_PApplet"><path codeLine="163" d="M989.664,843.75 C981.342,855.156 973.188,867.45 966.6,879.6 C939.984,928.686 956.19,952.17 924,997.8 C913.794,1012.266 901.2769,1022.8219 888.5269,1031.7319 " fill="none" id="GreenCircle-to-PApplet" style="stroke:#181818;stroke-width:0.6;"/><polygon fill="#181818" points="885.576,1033.794,891.3771,1032.668,888.0351,1032.0756,888.6275,1028.7336,885.576,1033.794" style="stroke:#181818;stroke-width:0.6;"/></g><!--link GreenCircle to ArrowInstance--><g id="link_GreenCircle_ArrowInstance"><path codeLine="164" d="M943.572,843.666 C923.712,855.3 905.6741,865.87 885.4601,877.714 " fill="none" id="GreenCircle-to-ArrowInstance" style="stroke:#181818;stroke-width:0.6;"/><polygon fill="#181818" points="882.354,879.534,888.2264,878.8748,884.9424,878.0174,885.7998,874.7333,882.354,879.534" style="stroke:#181818;stroke-width:0.6;"/></g><!--link Player to Arrow--><g id="link_Player_Arrow"><path codeLine="165" d="M782.4,700.974 C782.4,717.27 782.4,730.008 782.4,744.144 " fill="none" id="Player-to-Arrow" style="stroke:#181818;stroke-width:0.6;"/><polygon fill="#181818" points="782.4,747.744,784.8,742.344,782.4,744.744,780,742.344,782.4,747.744" style="stroke:#181818;stroke-width:0.6;"/></g><!--SRC=[lLPRRzCm57xlhyXZfx47BayLgbG6Z4cRDb4Gcn2QJcCtiPROmNRQ1SH_ntOSntQCLYwYBvM_uvpBTou-UGL2P3KGMcFQPjzdcVgTPATiX_aYkpwleS0Mox_608s1KZOHr70cSIvhu516effGKY-oI_rdeKsXpcn7t1Nb5xI8i4Msqd_N5NIOEzLOY9HWBO7BkpEeyIBRC5PXe5OYM4kHkOjYKLwH_3w6Zuq7S-25ChIMdD3YyvUZHRPZ1DaB0akfO36Vm6qJOOZ3ta4_PhFSSA_zTBpl2C8ivE02xt3LDgb0CSKrxhf5TaQs0rHXnIj87Sc80kTil_UHIrO2nQX8O56QBXEfUwCCTo82Lzf835PaXvyci6S9x7a2Un5X24IvOS3HLWdUCYejNYWMxtJHHhWe6PE9kmfPDKs51wmnl2hKvxVW6DDJmlDAtJyR3nxz1EiIv1ow2oBaIqFCCiw5vjIxKn6RecLWtF2tw6aSlCyPLwQ9SxrYW8ApBWuVUCLeAouKSIAurWDRzVa0STph2hj0EIOQu-_uSGqF4ymKvHPooRWFYmRsz9nAp7SGkAKgNQwry0EfWu1qBgxChFbFVMVLirPWrMKOfGJNUh9u8jUhxpw-jgtQQpNvILWp2OZm8TBOuRALSe9oe8ZLDneTapR0joFiF3DLuyQ8IepoO6Z8iVGCSaw519hZfLLgmFcHFRKDKgKPkuCfKZv2qxY-YQDGRJONUl3UMD-UPEPuwuv02zr7Wx0lANEQy1puwQ9w22ku2uye4gCkv2xG-UUk_XLDH5njj-jSJnBzwL3ourimpfW3enRaMz1F9P5sO8Vzv6cUFxZ8kYYgH01Fik3jZkCvPLMbtYpqYSYoBoJmnjX0TohMVjB-LfW-ugV8GenlY7mFYBJHh8FfPAtL2qkBUFmPfNTgPG5960thf_TtFZKIbSHaeeMK0QddgjWAx5LVVxwDkY58IQBTRD_6lMEUe4DfzIhx5qmVzmeJHVDl6yCl94lrKLp4uIs_f1-vUb1bMchrAtLWo448UXleLb92Vfz8Ydlp3yhCiVV1u-tgMNEB_Cd9SbYS0gpVjaF8B9i1vA-QPZ_rr8rdkq2DWDcntD4zEoFKcnflfCpeVNHK6Gkz9So19blUqL4N-A9QNp_VlkVzendw6c1ZdSp29scY9P1eimcuTyAVyG6D4HwQjzDoLFCJ]--></g></svg>